<?xml version="1.0" encoding="iso-8859-1"?>
<!-- Generator: Adobe Illustrator 19.0.0, SVG Export Plug-In . SVG Version: 6.00 Build 0)  -->
<svg version="1.1" id="&#x56FE;&#x5C42;_1" xmlns="http://www.w3.org/2000/svg" xmlns:xlink="http://www.w3.org/1999/xlink" x="0px"
	 y="0px" width="56px" height="56px" viewBox="20 -20 56 56" style="enable-background:new 20 -20 56 56;" xml:space="preserve">
<path style="opacity:0.5;fill-rule:evenodd;clip-rule:evenodd;fill:#00D2FF;" d="M48-14.116c12.188,0,22.068,9.88,22.068,22.068
	S60.188,30.021,48,30.021s-22.068-9.88-22.068-22.068S35.812-14.116,48-14.116z"/>
<path style="display:none;fill-rule:evenodd;clip-rule:evenodd;fill:#FFFFFF;" d="M60.691-5.246c-2.243,0-4.061,1.818-4.061,4.061
	c0,1.362,0.676,2.56,1.704,3.296L53.68,13.645c-0.62-0.383-1.344-0.615-2.126-0.615c-0.214,0-0.419,0.031-0.624,0.063l-5.574-9.32
	c0.065-0.289,0.107-0.587,0.107-0.896c0-2.243-1.818-4.061-4.061-4.061s-4.061,1.818-4.061,4.061c0,1.176,0.507,2.226,1.306,2.968
	l-2.997,7.219c-0.114-0.01-0.224-0.034-0.34-0.034c-2.243,0-4.061,1.818-4.061,4.061s1.818,4.061,4.061,4.061
	c2.243,0,4.061-1.818,4.061-4.061c0-1.363-0.677-2.563-1.708-3.299l2.789-6.977c0.306,0.074,0.621,0.123,0.949,0.123
	c1.053,0,2.002-0.411,2.724-1.068l4.83,8.124c-0.887,0.745-1.463,1.848-1.463,3.097c0,2.243,1.818,4.061,4.061,4.061
	s4.061-1.818,4.061-4.061c0-0.577-0.124-1.123-0.34-1.62l5.087-12.628c0.111,0.009,0.217,0.033,0.33,0.033
	c2.243,0,4.061-1.818,4.061-4.061S62.934-5.246,60.691-5.246z M35.309,19.121c-1.122,0-2.031-0.909-2.031-2.031
	c0-1.122,0.909-2.031,2.031-2.031c1.122,0,2.031,0.909,2.031,2.031C37.339,18.212,36.43,19.121,35.309,19.121z M41.4,4.907
	c-1.122,0-2.031-0.909-2.031-2.031s0.909-2.031,2.031-2.031c1.122,0,2.031,0.909,2.031,2.031S42.522,4.907,41.4,4.907z
	 M51.554,19.121c-1.122,0-2.031-0.909-2.031-2.031c0-1.122,0.909-2.031,2.031-2.031c1.122,0,2.031,0.909,2.031,2.031
	C53.584,18.212,52.675,19.121,51.554,19.121z M60.691,0.846c-1.122,0-2.031-0.909-2.031-2.031s0.909-2.031,2.031-2.031
	c1.122,0,2.031,0.909,2.031,2.031S61.813,0.846,60.691,0.846z"/>
<path style="display:none;fill-rule:evenodd;clip-rule:evenodd;fill:#FFFFFF;" d="M59.22,13.536V2.37
	c1.811-0.469,3.155-2.1,3.155-4.059c0-2.324-1.884-4.207-4.207-4.207c-1.958,0-3.589,1.344-4.059,3.155H41.891
	c-0.469-1.811-2.1-3.155-4.059-3.155c-2.324,0-4.207,1.884-4.207,4.207c0,1.958,1.344,3.589,3.155,4.059v11.166
	c-1.811,0.469-3.155,2.1-3.155,4.059c0,2.324,1.884,4.207,4.207,4.207c1.958,0,3.589-1.344,4.059-3.155h12.218
	c0.469,1.811,2.1,3.155,4.059,3.155c2.324,0,4.207-1.884,4.207-4.207C62.375,15.636,61.031,14.005,59.22,13.536z M58.168-3.793
	c1.162,0,2.104,0.942,2.104,2.104s-0.942,2.104-2.104,2.104c-1.162,0-2.104-0.942-2.104-2.104S57.006-3.793,58.168-3.793z
	 M35.729-1.689c0-1.162,0.942-2.104,2.104-2.104c1.162,0,2.104,0.942,2.104,2.104s-0.942,2.104-2.104,2.104
	C36.67,0.415,35.729-0.527,35.729-1.689z M37.832,19.698c-1.162,0-2.104-0.942-2.104-2.104s0.942-2.104,2.104-2.104
	c1.162,0,2.104,0.942,2.104,2.104S38.994,19.698,37.832,19.698z M54.109,16.543H41.891c-0.382-1.473-1.533-2.625-3.007-3.007V2.37
	c1.473-0.382,2.625-1.533,3.007-3.007h12.218c0.382,1.473,1.533,2.625,3.007,3.007v11.166
	C55.642,13.918,54.491,15.069,54.109,16.543z M58.168,19.698c-1.162,0-2.104-0.942-2.104-2.104s0.942-2.104,2.104-2.104
	c1.162,0,2.104,0.942,2.104,2.104S59.33,19.698,58.168,19.698z"/>
<g style="display:none;">
	<rect x="46.5" y="5.453" style="display:inline;fill-rule:evenodd;clip-rule:evenodd;fill:#FFFFFF;" width="3" height="9"/>
	<path style="display:inline;fill-rule:evenodd;clip-rule:evenodd;fill:#FFFFFF;" d="M61.5-0.547h-27v3h3.986l2.14,19h14.748
		l2.14-19H61.5V-0.547z M53.095,19.071h-10.19L41.679,2.739h12.642L53.095,19.071z"/>
	<rect x="43" y="-5.547" style="display:inline;fill-rule:evenodd;clip-rule:evenodd;fill:#FFFFFF;" width="10" height="3"/>
</g>
<path style="fill-rule:evenodd;clip-rule:evenodd;fill:#FFFFFF;" d="M59.91,18.733l-4.717-8.818l-1.763,0.943l3.773,7.054
	l-5.291,2.83l-3.773-7.054l-1.725,0.919l-0.051-0.097c-3.31-0.08-6.483-1.881-8.156-5.004c-1.682-3.14-1.406-6.796,0.39-9.595
	l2.718,4.613l0.001,0.001l0.447,0.836l0.004-0.002L42.3,6.343l8.85-4.754l-1.019-1.785l-2.212-4.136
	c2.892,0.412,5.559,2.122,7.043,4.892c0.693,1.293,1.05,2.674,1.11,4.046l2.354,4.4c1.061-3.146,0.873-6.702-0.818-9.861
	c-2.654-4.955-8.175-7.39-13.422-6.363l-0.083-0.01l4.266,7.976l-5.289,2.833l-4.268-7.98l-1.639,1.319l-0.028-0.054
	c-0.061,0.07-0.114,0.145-0.173,0.216l-0.027,0.021l0.004,0.007c-3.119,3.788-3.845,9.217-1.385,13.811
	c2.428,4.534,7.258,6.948,12.082,6.541l3.448,5.987l1.634-0.874l5.42-2.899v0L59.91,18.733z"/>
<path style="opacity:0.2;fill-rule:evenodd;clip-rule:evenodd;fill:#00D2FF;" d="M48-20.001c15.531,0,28.122,12.515,28.122,27.953
	S63.531,35.906,48,35.906c-15.531,0-28.122-12.515-28.122-27.953S32.469-20.001,48-20.001z"/>
<g style="display:none;">
	<circle style="display:inline;fill-rule:evenodd;clip-rule:evenodd;fill:#FFFFFF;" cx="48" cy="8.953" r="3.5"/>
	<polygon style="display:inline;fill-rule:evenodd;clip-rule:evenodd;fill:#FFFFFF;" points="59.503,7.467 59.497,9.378 
		68.497,9.454 68.503,7.543 	"/>
	<polygon style="display:inline;fill-rule:evenodd;clip-rule:evenodd;fill:#FFFFFF;" points="27.497,9.378 36.497,9.454 
		36.503,7.543 27.503,7.467 	"/>
	<polygon style="display:inline;fill-rule:evenodd;clip-rule:evenodd;fill:#FFFFFF;" points="47.499,28.45 49.409,28.456 
		49.485,19.456 47.575,19.45 	"/>
	<polygon style="display:inline;fill-rule:evenodd;clip-rule:evenodd;fill:#FFFFFF;" points="49.485,-12.544 47.575,-12.55 
		47.499,-3.55 49.409,-3.544 	"/>
</g>
</svg>
